<?xml version="1.0" encoding="UTF-8" standalone="no"?>
<!-- Created with Inkscape (http://www.inkscape.org/) -->

<svg
   xmlns:dc="http://purl.org/dc/elements/1.1/"
   xmlns:cc="http://creativecommons.org/ns#"
   xmlns:rdf="http://www.w3.org/1999/02/22-rdf-syntax-ns#"
   xmlns:svg="http://www.w3.org/2000/svg"
   xmlns="http://www.w3.org/2000/svg"
   xmlns:sodipodi="http://sodipodi.sourceforge.net/DTD/sodipodi-0.dtd"
   xmlns:inkscape="http://www.inkscape.org/namespaces/inkscape"
   width="862"
   height="400"
   viewBox="0 0 861.99999 399.99998"
   id="svg4602"
   version="1.1"
   inkscape:version="0.91 r13725"
   sodipodi:docname="dws.svg">
  <defs
     id="defs4604" />
  <sodipodi:namedview
     id="base"
     pagecolor="#ffffff"
     bordercolor="#666666"
     borderopacity="1.0"
     inkscape:pageopacity="0.0"
     inkscape:pageshadow="2"
     inkscape:zoom="0.7"
     inkscape:cx="129.14422"
     inkscape:cy="160.58407"
     inkscape:document-units="px"
     inkscape:current-layer="layer1"
     showgrid="false"
     units="px"
     inkscape:window-width="1920"
     inkscape:window-height="1056"
     inkscape:window-x="0"
     inkscape:window-y="24"
     inkscape:window-maximized="1" />
  <metadata
     id="metadata4607">
    <rdf:RDF>
      <cc:Work
         rdf:about="">
        <dc:format>image/svg+xml</dc:format>
        <dc:type
           rdf:resource="http://purl.org/dc/dcmitype/StillImage" />
        <dc:title />
      </cc:Work>
    </rdf:RDF>
  </metadata>
  <g
     inkscape:label="Layer 1"
     inkscape:groupmode="layer"
     id="layer1"
     transform="translate(0,-652.36225)">
    <g
       id="g4330"
       transform="matrix(6.1788618,0,0,6.1788618,222.95457,543.1102)"
       style="fill:#dddddd;fill-opacity:1">
      <path
         inkscape:connector-curvature="0"
         d="m 70.4,27.5 c -3.7,0 -7.2,0.8 -10.3,2.3 -3.7,-6.3 -10.6,-10.5 -18.5,-10.5 -11.8,0 -21.5,9.6 -21.5,21.5 0,0.2 0,0.3 0,0.5 -0.1,0 -0.2,0 -0.3,0 C 11.6,41.2 5,47.8 5,56 c 0,8.2 6.6,14.8 14.8,14.8 0.9,0 1.8,-0.1 2.7,-0.3 0.5,0.8 1.1,1.6 1.7,2.4 0.2,0.2 0.3,0.4 0.5,0.6 0.1,0.1 0.2,0.2 0.2,0.2 3.9,4.3 9.6,7.1 15.9,7.1 6.6,0 12.5,-3 16.4,-7.7 0,0 0.1,0 0.1,0 3.8,2.4 8.3,3.8 13.1,3.8 C 83.9,76.8 95,65.8 95,52.2 95,38.6 83.9,27.5 70.4,27.5 Z m 0,46.8 c -4.3,0 -8.3,-1.2 -11.7,-3.4 -0.3,-0.2 -0.6,-0.4 -0.8,-0.5 -2.8,-2.1 -5,-4.8 -6.6,-7.9 -0.3,-0.6 -1.1,-0.9 -1.7,-0.5 -0.6,0.3 -0.9,1.1 -0.5,1.7 1.5,3 3.6,5.6 6.1,7.8 0,0 0,0 0,0.1 -3.5,4.1 -8.6,6.7 -14.4,6.7 -6,0 -11.3,-2.8 -14.7,-7.1 -2,-2.7 -3.4,-5.8 -4.1,-9.1 -0.1,-0.7 -0.8,-1.1 -1.5,-1 -0.7,0.1 -1.1,0.8 -1,1.5 0.4,2 1.1,3.8 1.9,5.6 0,0 0,0 0,0 -0.5,0.1 -1,0.1 -1.5,0.1 C 13,68.2 7.5,62.7 7.5,56 7.5,49.3 13,43.7 19.8,43.7 c 0.2,0 0.4,0 0.5,0 0.4,0 0.9,0.1 1.3,0.1 0.4,0.1 0.9,0.2 1.3,0.3 -0.1,-0.4 -0.1,-0.9 -0.2,-1.3 0,-0.4 -0.1,-0.9 -0.1,-1.3 0,-0.2 0,-0.5 0,-0.7 0,-10.5 8.5,-19 19,-19 6.9,0 12.9,3.7 16.3,9.2 0.2,0.4 0.4,0.7 0.6,1.1 0.2,0.4 0.4,0.8 0.5,1.1 0.4,-0.2 0.7,-0.4 1.1,-0.6 0.4,-0.2 0.7,-0.4 1.1,-0.5 2.8,-1.3 5.9,-2 9.1,-2 12.2,0 22.1,9.9 22.1,22.1 0,12.2 -9.8,22.1 -22,22.1 z"
         id="path4332"
         style="fill:#dddddd;fill-opacity:1" />
    </g>
    <path
       style="opacity:0.15899999;fill:#dddddd;fill-opacity:1;stroke:none;stroke-width:0.5;stroke-miterlimit:4;stroke-dasharray:none"
       d="m 445.24978,1021.8447 c -31.66419,-8.7042 -57.53125,-30.31064 -72.79335,-60.80338 -5.12382,-10.23708 -10.03793,-22.88595 -10.92034,-28.10863 -1.67181,-9.89557 -7.30211,-15.12407 -13.65936,-12.68453 -6.24368,2.39592 -6.4233,9.55259 -0.65601,26.13653 6.45716,18.56748 6.0281,19.1486 -12.02919,16.29415 -25.82425,-4.08225 -45.04162,-18.05742 -56.31205,-40.9509 -14.5611,-29.57778 -8.99846,-62.58761 14.41022,-85.51335 15.90705,-15.57876 27.57861,-20.15192 51.67092,-20.24566 l 20.48113,-0.0797 -1.25554,-9.25656 c -2.43756,-17.97041 2.40277,-42.68969 12.28944,-62.76148 29.9474,-60.79895 104.53566,-82.83128 163.47761,-48.28898 14.34862,8.40882 31.74471,26.2171 40.1377,41.08863 l 7.30484,12.94342 10.86207,-5.42139 c 36.55111,-18.24316 82.78062,-18.0636 119.52829,0.46403 33.05901,16.66803 56.3797,44.74144 69.74569,83.95992 6.63431,19.46638 6.09576,56.16653 -1.14884,78.2821 -18.41603,56.21905 -70.23271,93.86448 -128.54942,93.39258 -47.26156,-0.38242 -82.7053,-19.5757 -109.76297,-59.43838 -11.32474,-16.68422 -17.1233,-19.87894 -22.00787,-12.12527 -3.5893,5.69771 6.38183,24.08835 23.39162,43.14322 l 13.22851,14.81895 -11.26511,9.91275 c -12.78518,11.25043 -34.51506,22.66063 -49.9058,26.20533 -14.13909,3.2563 -42.68964,2.7674 -56.26219,-0.9637 z"
       id="path4537"
       inkscape:connector-curvature="0" />
    <circle
       style="opacity:1;fill:#dfdfdf;fill-opacity:0.15686275;stroke:none;stroke-width:0.5;stroke-miterlimit:4;stroke-dasharray:none"
       id="path4487"
       cx="659.17578"
       cy="866.24713"
       r="110.59853" />
    <path
       inkscape:connector-curvature="0"
       style="fill:#2ecc71;fill-opacity:1;fill-rule:nonzero;stroke:none"
       d="m 658.75628,755.64839 c -60.99772,0 -110.18023,49.87417 -110.18023,111.00746 0,61.13323 49.18251,110.19135 110.18023,110.19135 60.99772,0 111.01932,-49.05812 111.01932,-110.19135 0,-20.55169 -6.24374,-39.82764 -15.98101,-56.31983 l -100.0852,123.25112 -7.57035,8.9785 c -4.33138,5.06803 -12.51528,5.06803 -16.82195,0 L 621.74922,931.95487 578.014,877.26718 c -3.73512,-4.47028 -3.16975,-11.1162 1.6961,-14.69247 l 18.5026,-13.05945 c 4.93877,-3.27931 11.76147,-2.3248 15.13945,2.4472 l 26.91389,37.54684 98.40517,-98.7642 c -20.12888,-21.28202 -48.33477,-35.09799 -79.90195,-35.09799 z"
       id="path3122-8-7-2-0-9-72-3-6-7-6" />
    <g
       style="font-style:normal;font-weight:normal;font-size:248.53573608px;line-height:125%;font-family:sans-serif;letter-spacing:0px;word-spacing:0px;fill:#3f51b5;fill-opacity:1;stroke:none;stroke-width:1px;stroke-linecap:butt;stroke-linejoin:miter;stroke-opacity:1"
       id="text4268">
      <path
         d="m 112.1992,811.47864 c -30.07282,0 -60.145644,23.6109 -60.145644,65.86197 0,42.25108 30.072824,65.86197 60.145644,65.86197 17.39751,0 31.06697,-6.959 42.49961,-18.88871 l 0,6.46192 c 0,6.2134 4.97072,11.18411 11.43265,11.18411 6.21339,0 11.18411,-4.97071 11.18411,-11.18411 l 0,-161.29969 c 0,-6.46193 -4.97072,-11.43264 -11.18411,-11.43264 -6.46193,0 -11.43265,4.97071 -11.43265,11.43264 l 0,60.89126 c -11.43264,-11.92972 -25.1021,-18.88872 -42.49961,-18.88872 z m 3.23097,110.5984 c -23.610897,0 -40.759862,-15.40921 -40.759862,-44.73643 0,-29.32722 17.148965,-44.73643 40.759862,-44.73643 16.15482,0 29.57575,7.95314 39.26864,18.64018 l 0,52.1925 c -9.69289,10.68704 -23.11382,18.64018 -39.26864,18.64018 z"
         style="font-style:normal;font-variant:normal;font-weight:normal;font-stretch:normal;font-family:'varela round';-inkscape-font-specification:'varela round';fill:#3f51b5;fill-opacity:1"
         id="path4167" />
      <path
         d="m 374.86652,812.72132 c -4.47364,0 -8.94729,2.48536 -10.18997,6.71046 l -29.07868,95.68626 -28.83014,-93.44943 c -1.49122,-5.21925 -6.46193,-8.94729 -12.17825,-8.94729 -5.71633,0 -10.68704,3.72804 -12.17825,8.94729 l -28.83015,93.44943 -29.07868,-95.68626 c -1.24268,-4.2251 -5.71632,-6.71046 -10.18997,-6.71046 -6.21339,0 -11.1841,4.97071 -11.1841,11.18411 0,1.49121 0.24853,2.73389 0.7456,4.22511 l 35.29208,103.39086 c 1.98828,5.71632 7.70461,10.4385 14.41507,10.4385 6.71046,0 12.42679,-4.72218 14.66361,-10.68703 l 26.34479,-82.26533 26.34478,82.26533 c 2.23683,5.96485 7.95315,10.68703 14.66361,10.68703 6.71047,0 12.42679,-4.72218 14.41508,-10.4385 l 35.29207,-103.39086 c 0.49707,-1.49122 0.74561,-2.7339 0.74561,-4.22511 0,-6.2134 -4.97072,-11.18411 -11.18411,-11.18411 z"
         style="font-style:normal;font-variant:normal;font-weight:normal;font-stretch:normal;font-family:'varela round';-inkscape-font-specification:'varela round';fill:#3f51b5;fill-opacity:1"
         id="path4169" />
      <path
         d="m 426.60079,849.50461 c 0,-9.94143 10.18996,-17.3975 28.58161,-17.3975 10.93557,0 20.37993,1.98828 28.33307,4.47364 0.99415,0.24854 1.98829,0.49707 3.23097,0.49707 5.71632,0 9.94143,-4.72218 9.94143,-9.94143 0,-3.72803 -2.48536,-7.95314 -7.20754,-9.44436 -10.18997,-3.72803 -22.36822,-6.21339 -36.03768,-6.21339 -32.30965,0 -48.46447,16.90043 -48.46447,39.26865 0,45.2335 74.56072,32.55818 74.56072,53.93225 0,11.18411 -8.45021,17.64604 -27.58747,17.64604 -14.6636,0 -24.85357,-3.4795 -33.80086,-7.45607 -1.73975,-0.74561 -2.98243,-0.99415 -4.47364,-0.99415 -5.71632,0 -9.69289,4.97072 -9.69289,9.94143 0,3.4795 1.73975,6.46193 4.2251,8.20168 12.67533,6.959 27.0904,11.18411 45.23351,11.18411 31.81257,0 47.9674,-16.65189 47.9674,-36.78329 0,-48.713 -74.80926,-31.06696 -74.80926,-56.91468 z"
         style="font-style:normal;font-variant:normal;font-weight:normal;font-stretch:normal;font-family:'varela round';-inkscape-font-specification:'varela round';fill:#3f51b5;fill-opacity:1"
         id="path4171" />
    </g>
  </g>
</svg>
