<?xml version="1.0" encoding="UTF-8" standalone="no"?>
<!-- Created with Inkscape (http://www.inkscape.org/) -->

<svg
   xmlns:dc="http://purl.org/dc/elements/1.1/"
   xmlns:cc="http://creativecommons.org/ns#"
   xmlns:rdf="http://www.w3.org/1999/02/22-rdf-syntax-ns#"
   xmlns:svg="http://www.w3.org/2000/svg"
   xmlns="http://www.w3.org/2000/svg"
   xmlns:sodipodi="http://sodipodi.sourceforge.net/DTD/sodipodi-0.dtd"
   xmlns:inkscape="http://www.inkscape.org/namespaces/inkscape"
   width="862"
   height="400"
   viewBox="0 0 861.99999 399.99998"
   id="svg4602"
   version="1.1"
   inkscape:version="0.91 r13725"
   sodipodi:docname="dws.svg">
  <defs
     id="defs4604" />
  <sodipodi:namedview
     id="base"
     pagecolor="#ffffff"
     bordercolor="#666666"
     borderopacity="1.0"
     inkscape:pageopacity="0.0"
     inkscape:pageshadow="2"
     inkscape:zoom="0.7"
     inkscape:cx="342.00136"
     inkscape:cy="160.58407"
     inkscape:document-units="px"
     inkscape:current-layer="layer1"
     showgrid="false"
     units="px"
     inkscape:window-width="1920"
     inkscape:window-height="1056"
     inkscape:window-x="0"
     inkscape:window-y="24"
     inkscape:window-maximized="1" />
  <metadata
     id="metadata4607">
    <rdf:RDF>
      <cc:Work
         rdf:about="">
        <dc:format>image/svg+xml</dc:format>
        <dc:type
           rdf:resource="http://purl.org/dc/dcmitype/StillImage" />
        <dc:title />
      </cc:Work>
    </rdf:RDF>
  </metadata>
  <g
     inkscape:label="Layer 1"
     inkscape:groupmode="layer"
     id="layer1"
     transform="translate(0,-652.36225)">
    <g
       id="g5282"
       transform="translate(-30.292532,2.9679866e-6)">
      <g
         style="opacity:1"
         transform="matrix(6.1788618,0,0,6.1788618,-4991.7697,-595.7273)"
         id="g4539">
        <g
           transform="translate(120.37983,117.14747)"
           id="g4512">
          <g
             style="fill:#dddddd;fill-opacity:1"
             transform="translate(728.48473,67.164388)"
             id="g4330">
            <path
               style="fill:#dddddd;fill-opacity:1"
               id="path4332"
               d="m 70.4,27.5 c -3.7,0 -7.2,0.8 -10.3,2.3 -3.7,-6.3 -10.6,-10.5 -18.5,-10.5 -11.8,0 -21.5,9.6 -21.5,21.5 0,0.2 0,0.3 0,0.5 -0.1,0 -0.2,0 -0.3,0 C 11.6,41.2 5,47.8 5,56 c 0,8.2 6.6,14.8 14.8,14.8 0.9,0 1.8,-0.1 2.7,-0.3 0.5,0.8 1.1,1.6 1.7,2.4 0.2,0.2 0.3,0.4 0.5,0.6 0.1,0.1 0.2,0.2 0.2,0.2 3.9,4.3 9.6,7.1 15.9,7.1 6.6,0 12.5,-3 16.4,-7.7 0,0 0.1,0 0.1,0 3.8,2.4 8.3,3.8 13.1,3.8 C 83.9,76.8 95,65.8 95,52.2 95,38.6 83.9,27.5 70.4,27.5 Z m 0,46.8 c -4.3,0 -8.3,-1.2 -11.7,-3.4 -0.3,-0.2 -0.6,-0.4 -0.8,-0.5 -2.8,-2.1 -5,-4.8 -6.6,-7.9 -0.3,-0.6 -1.1,-0.9 -1.7,-0.5 -0.6,0.3 -0.9,1.1 -0.5,1.7 1.5,3 3.6,5.6 6.1,7.8 0,0 0,0 0,0.1 -3.5,4.1 -8.6,6.7 -14.4,6.7 -6,0 -11.3,-2.8 -14.7,-7.1 -2,-2.7 -3.4,-5.8 -4.1,-9.1 -0.1,-0.7 -0.8,-1.1 -1.5,-1 -0.7,0.1 -1.1,0.8 -1,1.5 0.4,2 1.1,3.8 1.9,5.6 0,0 0,0 0,0 -0.5,0.1 -1,0.1 -1.5,0.1 C 13,68.2 7.5,62.7 7.5,56 7.5,49.3 13,43.7 19.8,43.7 c 0.2,0 0.4,0 0.5,0 0.4,0 0.9,0.1 1.3,0.1 0.4,0.1 0.9,0.2 1.3,0.3 -0.1,-0.4 -0.1,-0.9 -0.2,-1.3 0,-0.4 -0.1,-0.9 -0.1,-1.3 0,-0.2 0,-0.5 0,-0.7 0,-10.5 8.5,-19 19,-19 6.9,0 12.9,3.7 16.3,9.2 0.2,0.4 0.4,0.7 0.6,1.1 0.2,0.4 0.4,0.8 0.5,1.1 0.4,-0.2 0.7,-0.4 1.1,-0.6 0.4,-0.2 0.7,-0.4 1.1,-0.5 2.8,-1.3 5.9,-2 9.1,-2 12.2,0 22.1,9.9 22.1,22.1 0,12.2 -9.8,22.1 -22,22.1 z"
               inkscape:connector-curvature="0" />
          </g>
        </g>
        <path
           style="opacity:0.15899999;fill:#dddddd;fill-opacity:1;stroke:none;stroke-width:0.5;stroke-miterlimit:4;stroke-dasharray:none"
           d="m 884.84128,261.79126 c -5.1246,-1.40871 -9.31098,-4.90554 -11.78103,-9.84055 -0.82925,-1.65679 -1.62456,-3.70391 -1.76737,-4.54916 -0.27057,-1.60152 -1.18179,-2.44771 -2.21066,-2.05289 -1.01049,0.38776 -1.03956,1.54601 -0.10617,4.22999 1.04504,3.005 0.9756,3.09905 -1.94683,2.63708 -4.17945,-0.66068 -7.28963,-2.92245 -9.11366,-6.62758 -2.3566,-4.78693 -1.45633,-10.12931 2.33218,-13.83966 2.57443,-2.5213 4.46338,-3.26143 8.36253,-3.2766 l 3.31471,-0.0129 -0.2032,-1.4981 c -0.3945,-2.90837 0.38887,-6.90899 1.98895,-10.15745 4.84675,-9.83983 16.91827,-13.40559 26.45756,-7.81519 2.32221,1.3609 5.13763,4.24303 6.49597,6.64987 l 1.18223,2.09479 1.75794,-0.87741 c 5.91551,-2.95251 13.39739,-2.92345 19.34471,0.0751 5.35034,2.69759 9.12461,7.24105 11.28779,13.58825 1.07371,3.15048 0.98655,9.09011 -0.18593,12.66934 -2.98049,9.09861 -11.36661,15.19122 -20.80471,15.11486 -7.64891,-0.0619 -13.3852,-3.16818 -17.76427,-9.61964 -1.83282,-2.70021 -2.77127,-3.21725 -3.5618,-1.96238 -0.5809,0.92213 1.03285,3.89851 3.78575,6.98239 l 2.14093,2.39833 -1.82317,1.6043 c -2.06918,1.82079 -5.58599,3.66744 -8.07686,4.24112 -2.2883,0.52702 -6.90898,0.44788 -9.10559,-0.15596 z"
           id="path4537"
           inkscape:connector-curvature="0" />
      </g>
      <g
         transform="matrix(6.1788618,0,0,6.1788618,-3498.6622,572.4378)"
         id="g4504">
        <circle
           style="opacity:1;fill:#dfdfdf;fill-opacity:0.15686275;stroke:none;stroke-width:0.5;stroke-miterlimit:4;stroke-dasharray:none"
           id="path4487"
           cx="677.81586"
           cy="47.550724"
           r="17.8995" />
        <path
           inkscape:connector-curvature="0"
           style="fill:#2ecc71;fill-opacity:1;fill-rule:nonzero;stroke:none"
           d="m 677.74796,29.651188 c -9.872,0 -17.8318,8.071741 -17.8318,17.965681 0,9.89393 7.9598,17.8336 17.8318,17.8336 9.872,0 17.9676,-7.93967 17.9676,-17.8336 0,-3.32613 -1.0105,-6.44579 -2.5864,-9.11492 l -16.198,19.94722 -1.2252,1.4531 c -0.701,0.82022 -2.0255,0.82022 -2.7225,0 l -1.2248,-1.71727 -7.0782,-8.85077 c -0.6045,-0.72348 -0.513,-1.79907 0.2745,-2.37786 l 2.9945,-2.11357 c 0.7993,-0.53073 1.9035,-0.37625 2.4502,0.39606 l 4.3558,6.07666 15.9261,-15.984206 c -3.2577,-3.444327 -7.8226,-5.680333 -12.9315,-5.680333 z"
           id="path3122-8-7-2-0-9-72-3-6-7-6" />
      </g>
      <g
         transform="translate(0,-10.101525)"
         id="g5200">
        <text
           xml:space="preserve"
           style="font-style:normal;font-weight:normal;font-size:248.53573608px;line-height:125%;font-family:sans-serif;letter-spacing:0px;word-spacing:0px;fill:#3f51b5;fill-opacity:1;stroke:none;stroke-width:1px;stroke-linecap:butt;stroke-linejoin:miter;stroke-opacity:1"
           x="70.416374"
           y="950.81873"
           id="text4268"
           sodipodi:linespacing="125%"><tspan
             sodipodi:role="line"
             id="tspan4270"
             x="70.416374"
             y="950.81873"
             style="font-style:normal;font-variant:normal;font-weight:normal;font-stretch:normal;font-family:'varela round';-inkscape-font-specification:'varela round';fill:#3f51b5;fill-opacity:1">dws</tspan></text>
      </g>
    </g>
  </g>
</svg>
